<svg width="24" height="24" viewBox="0 0 24 24" fill="none" xmlns="http://www.w3.org/2000/svg">
<path d="M21.5 16L21.989 16.5687C22.2614 16.3344 22.3294 15.9399 22.1512 15.6279L21.5 16ZM2.5 16L1.84882 15.6279C1.67056 15.9399 1.73858 16.3344 2.011 16.5687L2.5 16ZM19.5 12.5H18.75V12.6992L18.8488 12.8721L19.5 12.5ZM4.5 12.5L5.15118 12.8721L5.25 12.6992V12.5H4.5ZM12 19V19.75C16.0514 19.75 19.7088 18.5294 21.989 16.5687L21.5 16L21.011 15.4313C19.0683 17.1018 15.7895 18.25 12 18.25V19ZM2.5 16L2.011 16.5687C4.29125 18.5294 7.94862 19.75 12 19.75V19V18.25C8.21053 18.25 4.93165 17.1018 2.989 15.4313L2.5 16ZM21.5 16L22.1512 15.6279L20.1512 12.1279L19.5 12.5L18.8488 12.8721L20.8488 16.3721L21.5 16ZM19.5 12.5H20.25V9.5H19.5H18.75V12.5H19.5ZM4.5 9.5H3.75V12.5H4.5H5.25V9.5H4.5ZM4.5 12.5L3.84882 12.1279L1.84882 15.6279L2.5 16L3.15118 16.3721L5.15118 12.8721L4.5 12.5ZM12 2V1.25C7.44365 1.25 3.75 4.94365 3.75 9.5H4.5H5.25C5.25 5.77208 8.27208 2.75 12 2.75V2ZM19.5 9.5H20.25C20.25 4.94365 16.5563 1.25 12 1.25V2V2.75C15.7279 2.75 18.75 5.77208 18.75 9.5H19.5ZM8 18H7.25C7.25 20.6234 9.37665 22.75 12 22.75V22V21.25C10.2051 21.25 8.75 19.7949 8.75 18H8ZM12 22V22.75C14.6234 22.75 16.75 20.6234 16.75 18H16H15.25C15.25 19.7949 13.7949 21.25 12 21.25V22Z" fill="#323135"/>
</svg>
